<?xml version="1.0" encoding="utf-8"?>
<svg id="master-artboard" viewBox="0 0 1400 980" version="1.1" xmlns="http://www.w3.org/2000/svg" x="0px" y="0px" style="enable-background:new 0 0 1400 980;" width="1400px" height="980px" xmlns:xlink="http://www.w3.org/1999/xlink">
  <rect id="ee-background" x="0" y="0" width="1400" height="980" style="fill: white; fill-opacity: 0; pointer-events: none;"/>
  <g transform="matrix(1.0597113345965987, 0, 0, 1.0597113345965987, 188.28609044383526, -20.72499751683216)">
    <metadata id="metadata368871"></metadata>
    <linearGradient spreadMethod="pad" y2="30%" x2="-10%" y1="120%" x1="30%" id="3d_gradient2-logo-f8b7265b-0199-46f5-a3a6-f2764ee50309">
      <stop id="stop368846" stop-opacity="1" stop-color="#ffffff" offset="0%"/>
      <stop id="stop368848" stop-opacity="1" stop-color="#000000" offset="100%"/>
    </linearGradient>
    <linearGradient gradientTransform="rotate(-30)" spreadMethod="pad" y2="30%" x2="-10%" y1="120%" x1="30%" id="3d_gradient3-logo-f8b7265b-0199-46f5-a3a6-f2764ee50309">
      <stop id="stop368851" stop-opacity="1" stop-color="#ffffff" offset="0%"/>
      <stop id="stop368853" stop-opacity="1" stop-color="#cccccc" offset="50%"/>
      <stop id="stop368855" stop-opacity="1" stop-color="#000000" offset="100%"/>
    </linearGradient>
    <g id="logo-group">
      <image id="container" x="272" y="144" width="480" height="480" transform="translate(0 0)" style="display: none;" xlink:href=""/>
      <g id="logo-center" transform="translate(0 0)">
        <image id="icon_container" x="0" y="0" style="display: none;" xlink:href=""/>
        <g id="slogan" style="font-style:normal;font-weight:500;font-size:32px;line-height:1;font-family:Maitree;font-variant-ligatures:none;text-align:center;text-anchor:middle" transform="translate(0 0)"/>
        <g id="title" style="font-style:normal;font-weight:200;font-size:72px;line-height:1;font-family:'Geo 986 Wide';font-variant-ligatures:none;text-align:center;text-anchor:middle" transform="translate(0 0)">
          <path id="path368874" style="font-style:normal;font-weight:200;font-size:72px;line-height:1;font-family:'Geo 986 Wide';font-variant-ligatures:none;text-align:center;text-anchor:middle" d="m 428.57422,-42.890625 h -7.875 L 402.62891,0.94921875 h -10.51172 l -18,-43.83984375 h -7.13672 v -7.945312 h 24.36328 v 7.945312 h -5.83594 l 12.58594,30.585937 12.62109,-30.585937 h -6.5039 v -7.945312 h 24.36328 z" stroke-width="0" stroke-linejoin="miter" stroke-miterlimit="2" fill="#548f00" stroke="#548f00" transform="translate(5.684341886080802e-14 407.968164145) translate(270.99160365 15.939922210000006) scale(1.67) translate(-366.98047 50.835937)"/>
          <path id="path368876" style="font-style:normal;font-weight:200;font-size:72px;line-height:1;font-family:'Geo 986 Wide';font-variant-ligatures:none;text-align:center;text-anchor:middle" d="m 470.62109,-9.2109375 q -4.11328,5.90625 -9.42187,8.47265625 Q 455.85547,1.96875 448.85937,1.96875 q -10.125,0 -16.3125,-5.4492188 -6.29296,-5.3789062 -6.29296,-14.0273432 0,-8.578125 6.22265,-13.957032 6.11719,-5.414062 15.89063,-5.414062 10.30078,0 15.99609,5.625 2.8125,2.8125 4.25391,6.75 1.37109,4.042969 1.37109,9.738281 h -33.04687 q 0.28125,3.515625 3.44531,5.9765625 3.09375,2.4609375 8.64844,2.4609375 3.86718,0 7.10156,-1.6171875 3.23437,-1.3359375 5.90625,-4.9570315 z M 459.19531,-21.761719 q -0.35156,-1.652343 -1.23047,-3.023437 -0.8789,-1.371094 -2.03906,-2.390625 -2.8125,-2.144531 -7.55859,-2.144531 -4.7461,0 -7.69922,2.214843 -2.39063,1.933594 -3.02344,5.34375 z" stroke-width="0" stroke-linejoin="miter" stroke-miterlimit="2" fill="#689d0d" stroke="#689d0d" transform="translate(5.684341886080802e-14 407.968164145) translate(369.97824844999997 39.24816398) scale(1.67) translate(-426.25391 36.878906)"/>
          <path id="path368878" style="font-style:normal;font-weight:200;font-size:72px;line-height:1;font-family:'Geo 986 Wide';font-variant-ligatures:none;text-align:center;text-anchor:middle" d="m 504.33594,-27.527344 -1.44141,-0.5625 -2.88281,-0.07031 q -6.1875,0 -9,2.882812 -2.88281,2.882813 -2.88281,9.773438 v 8.4374998 h 7.48828 V 0.94921875 H 472.37891 V -7.0664062 h 5.9414 V -28.371094 h -5.9414 v -7.664062 h 15.39843 v 4.289062 q 1.3711,-1.757812 3.51563,-2.953125 1.58203,-0.949218 3.86719,-1.441406 2.32031,-0.527344 4.85156,-0.527344 h 1.58203 l 2.74219,0.140625 z" stroke-width="0" stroke-linejoin="miter" stroke-miterlimit="2" fill="#7cab1a" stroke="#7cab1a" transform="translate(5.684341886080802e-14 407.968164145) translate(447.00699844999997 39.60042877000001) scale(1.67) translate(-472.37891 36.667969)"/>
          <path id="path368880" style="font-style:normal;font-weight:200;font-size:72px;line-height:1;font-family:'Geo 986 Wide';font-variant-ligatures:none;text-align:center;text-anchor:middle" d="M 553.69531,0.94921875 H 537.76953 V -2.1796875 q -2.67187,1.72265625 -5.37891,2.77734375 Q 528.875,1.96875 524.76172,1.96875 q -8.85938,0 -14.55469,-5.3789063 -2.74219,-2.6367187 -4.11328,-6.046875 -1.37109,-3.3046877 -1.37109,-7.6289057 0,-8.402344 5.41406,-13.640625 Q 515.55078,-36 524.76172,-36 q 4.39453,0 7.83984,1.300781 1.3711,0.492188 2.56641,1.125 1.23047,0.667969 2.8125,1.757813 v -11.390625 h -6.01172 v -7.628906 h 15.67969 v 43.7695308 h 6.04687 z M 537.76953,-17.226562 q 0,-5.097657 -2.98828,-8.050782 -3.12891,-2.953125 -8.29688,-2.953125 -5.34375,0 -8.36718,2.8125 -3.09375,2.882813 -3.09375,8.191407 0,5.203124 3.09375,8.1562495 3.09375,2.9179688 8.36718,2.9179688 4.81641,0 8.05079,-3.0234376 3.23437,-3.0585937 3.23437,-8.0507807 z" stroke-width="0" stroke-linejoin="miter" stroke-miterlimit="2" fill="#90b828" stroke="#90b828" transform="translate(5.684341886080802e-14 407.968164145) translate(501.02106095 15.939922210000006) scale(1.67) translate(-504.72266 50.835937)"/>
          <path id="path368882" style="font-style:normal;font-weight:200;font-size:72px;line-height:1;font-family:'Geo 986 Wide';font-variant-ligatures:none;text-align:center;text-anchor:middle" d="m 599.99609,-9.2109375 q -4.11328,5.90625 -9.42187,8.47265625 Q 585.23047,1.96875 578.23437,1.96875 q -10.125,0 -16.3125,-5.4492188 -6.29296,-5.3789062 -6.29296,-14.0273432 0,-8.578125 6.22265,-13.957032 6.11719,-5.414062 15.89063,-5.414062 10.30078,0 15.99609,5.625 2.8125,2.8125 4.25391,6.75 1.37109,4.042969 1.37109,9.738281 h -33.04687 q 0.28125,3.515625 3.44531,5.9765625 3.09375,2.4609375 8.64844,2.4609375 3.86718,0 7.10156,-1.6171875 3.23437,-1.3359375 5.90625,-4.9570315 z M 588.57031,-21.761719 q -0.35156,-1.652343 -1.23047,-3.023437 -0.8789,-1.371094 -2.03906,-2.390625 -2.8125,-2.144531 -7.55859,-2.144531 -4.7461,0 -7.69922,2.214843 -2.39063,1.933594 -3.02344,5.34375 z" stroke-width="0" stroke-linejoin="miter" stroke-miterlimit="2" fill="#a4c635" stroke="#a4c635" transform="translate(5.684341886080802e-14 407.968164145) translate(586.0344984499999 39.24816398) scale(1.67) translate(-555.62891 36.878906)"/>
          <path id="path368884" style="font-style:normal;font-weight:200;font-size:72px;line-height:1;font-family:'Geo 986 Wide';font-variant-ligatures:none;text-align:center;text-anchor:middle" d="M 655.61328,0.94921875 H 629.38672 V -7.3476562 h 5.625 l -8.36719,-10.5820308 -8.33203,10.5820308 h 5.66016 V 0.94921875 H 598.90625 V -7.3476562 h 7.34766 l 14.69531,-17.6484378 -14.09766,-17.894531 h -7.94531 v -7.945312 h 25.06641 v 7.945312 h -4.07813 l 7.62891,9.773438 7.76953,-9.773438 h -5.90625 v -7.945312 h 24.22265 l -0.0352,7.945312 h -7.06641 l -13.35937,16.945313 14.76562,18.5976558 h 7.69922 z" stroke-width="0" stroke-linejoin="miter" stroke-miterlimit="2" fill="#b8d442" stroke="#b8d442" transform="translate(5.684341886080802e-14 407.968164145) translate(658.3076562499999 15.939922210000006) scale(1.67) translate(-598.90625 50.835937)"/>
        </g>
      </g>
    </g>
  </g>
</svg>
